<svg xmlns="http://www.w3.org/2000/svg" width="512" height="512" viewBox="0 0 512 512" fill="none">
    <path
        d="M256 0C56.8889 0 0 56.8889 0 256C0 455.111 57.0311 512 256 512C454.969 512 512 455.111 512 256C512 56.8889 454.969 0 256 0Z"
        fill="#00AA45" />
    <path fill-rule="evenodd" clip-rule="evenodd"
        d="M138.285 128H239.56C304.815 128 357.714 178.94 357.714 241.778C357.714 304.616 304.815 355.556 239.56 355.556H205.802V420.571H138.285V128ZM205.802 290.54H239.56C267.526 290.54 290.198 268.708 290.198 241.778C290.198 214.847 267.526 193.016 239.56 193.016H205.802V290.54Z"
        fill="#24292E" />
    <path fill-rule="evenodd" clip-rule="evenodd"
        d="M129.143 118.857H239.56C309.536 118.857 366.857 173.568 366.857 241.778C366.857 309.987 309.536 364.698 239.56 364.698H214.945V429.714H129.143V118.857ZM147.428 137.143V411.429H196.659V346.413H239.56C300.094 346.413 348.571 299.244 348.571 241.778C348.571 184.312 300.094 137.143 239.56 137.143H147.428ZM196.659 183.873H239.56C272.248 183.873 299.34 209.476 299.34 241.778C299.34 274.08 272.248 299.683 239.56 299.683H196.659V183.873ZM214.945 202.159V281.397H239.56C262.805 281.397 281.055 263.337 281.055 241.778C281.055 220.219 262.805 202.159 239.56 202.159H214.945Z"
        fill="#24292E" />
    <path fill-rule="evenodd" clip-rule="evenodd"
        d="M164.571 109.714H265.846C331.101 109.714 384 160.654 384 223.492C384 286.33 331.101 337.27 265.846 337.27H232.088V402.286H164.571V109.714ZM232.088 272.254H265.846C293.812 272.254 316.483 250.422 316.483 223.492C316.483 196.562 293.812 174.73 265.846 174.73H232.088V272.254Z"
        fill="white" />
    <path fill-rule="evenodd" clip-rule="evenodd"
        d="M155.429 100.571H265.846C335.822 100.571 393.143 155.283 393.143 223.492C393.143 291.701 335.822 346.413 265.846 346.413H241.231V411.429H155.429V100.571ZM173.714 118.857V393.143H222.945V328.127H265.846C326.38 328.127 374.857 280.958 374.857 223.492C374.857 166.026 326.38 118.857 265.846 118.857H173.714ZM222.945 165.587H265.846C298.534 165.587 325.627 191.19 325.627 223.492C325.627 255.794 298.534 281.397 265.846 281.397H222.945V165.587ZM241.231 183.873V263.111H265.846C289.091 263.111 307.341 245.051 307.341 223.492C307.341 201.933 289.091 183.873 265.846 183.873H241.231Z"
        fill="#24292E" />
</svg>