<svg xmlns="http://www.w3.org/2000/svg" width="375" viewBox="0 0 375 375" height="375" version="1.0"><path d="M0 350.858h80.05c-24.152-19.266-31.206-42.875-23.335-80.863h93.344c7.87 31.476 11.125 61.597 5.425 80.863h96.875c-54-89.273-96.058-230.652-96.058-246.934l-47.488 5.43-41.247 102.027C36.09 289.803 21.98 322.096 0 350.858m58.613-89.273c3.797-15.2 10.04-32.563 18.18-52.914l22.523-56.172c17.094 21.707 36.633 65.937 48.57 109.086Zm0 0"/><path d="M182.621 242.896h70.758c-5.25-24.254-8.75-50.504-10.254-77.508h28.754c131.512-.25 138.512-144.762 0-145.012H182.87c15.004 68.258 15.004 154.262-.25 222.52m59.754-124.512c0-26.75 1.254-89.758 37.254-89.758 19.254 0 30.254 14.254 36.004 31.504 17.25 50.504-15.75 96.258-48.754 96.258h-24.254c-.5-17-.25-23.25-.25-38.004m0 0"/></svg>