<svg xmlns="http://www.w3.org/2000/svg" width="375" viewBox="0 0 375 375" height="375" version="1.0"><g><g><g><path d="M 0 0 L 80.050781 0 C 55.898438 -19.265625 48.84375 -42.875 56.714844 -80.863281 L 150.058594 -80.863281 C 157.929688 -49.386719 161.183594 -19.265625 155.484375 0 L 252.359375 0 C 198.359375 -89.273438 156.300781 -230.652344 156.300781 -246.933594 L 108.8125 -241.503906 L 67.566406 -139.476562 C 36.089844 -61.054688 21.980469 -28.761719 0 0 Z M 58.613281 -89.273438 C 62.410156 -104.472656 68.652344 -121.835938 76.792969 -142.1875 L 99.316406 -198.359375 C 116.410156 -176.652344 135.949219 -132.421875 147.886719 -89.273438 Z M 58.613281 -89.273438" transform="translate(0 350.858)"/></g></g></g><g><g><g><path d="M 7.5 0 L 78.257812 0 C 73.007812 -24.253906 69.507812 -50.503906 68.003906 -77.507812 L 96.757812 -77.507812 C 228.269531 -77.757812 235.269531 -222.269531 96.757812 -222.519531 L 7.75 -222.519531 C 22.753906 -154.261719 22.753906 -68.257812 7.5 0 Z M 67.253906 -124.511719 C 67.253906 -151.261719 68.507812 -214.269531 104.507812 -214.269531 C 123.761719 -214.269531 134.761719 -200.015625 140.511719 -182.765625 C 157.761719 -132.261719 124.761719 -86.507812 91.757812 -86.507812 L 67.503906 -86.507812 C 67.003906 -103.507812 67.253906 -109.757812 67.253906 -124.511719 Z M 67.253906 -124.511719" transform="translate(175.121 242.896)"/></g></g></g></svg>